<svg width="52" height="51" viewBox="0 0 52 51" fill="none" xmlns="http://www.w3.org/2000/svg">
<g clip-path="url(#clip0_330_75)">
<path d="M25.6365 20.8467V30.5285H39.4338C38.8279 33.6421 37.0098 36.2786 34.283 38.0513L42.6033 44.3468C47.451 39.9833 50.2478 33.5742 50.2478 25.9606C50.2478 24.1879 50.0847 22.4832 49.7816 20.847L25.6365 20.8467Z" fill="#4285F4"/>
<path d="M11.269 30.1514L9.39241 31.5522L2.75 36.5975C6.96843 44.7565 15.6144 50.393 25.6361 50.393C32.5579 50.393 38.3611 48.1657 42.6029 44.3476L34.2826 38.0521C31.9986 39.5521 29.0853 40.4613 25.6361 40.4613C18.9705 40.4613 13.3072 36.075 11.2794 30.1658L11.269 30.1514Z" fill="#34A853"/>
<path d="M2.74994 14.1885C1.00207 17.552 0 21.3475 0 25.3929C0 29.4382 1.00207 33.2338 2.74994 36.5973C2.74994 36.6198 11.2802 30.1427 11.2802 30.1427C10.7675 28.6427 10.4644 27.0519 10.4644 25.3926C10.4644 23.7333 10.7675 22.1425 11.2802 20.6425L2.74994 14.1885Z" fill="#FBBC05"/>
<path d="M25.6366 10.3471C29.4123 10.3471 32.7683 11.6198 35.4485 14.0744L42.79 6.91539C38.3384 2.87001 32.5587 0.392578 25.6366 0.392578C15.615 0.392578 6.96843 6.0062 2.75 14.188L11.28 20.6426C13.3075 14.7334 18.971 10.3471 25.6366 10.3471Z" fill="#EA4335"/>
</g>
<defs>
<clipPath id="clip0_330_75">
<rect y="0.392578" width="51.2739" height="50" rx="25" fill="white"/>
</clipPath>
</defs>
</svg>
