<svg width="52" height="50" viewBox="0 0 52 50" fill="none" xmlns="http://www.w3.org/2000/svg">
<g clip-path="url(#clip0_330_74)">
<path d="M0 24C0 12.6862 0 7.02944 3.60427 3.51472C7.20853 0 13.0095 0 24.6115 0H26.6624C38.2644 0 44.0653 0 47.6697 3.51472C51.2739 7.02944 51.2739 12.6862 51.2739 24V26C51.2739 37.3137 51.2739 42.9705 47.6697 46.4853C44.0653 50 38.2644 50 26.6624 50H24.6115C13.0095 50 7.20853 50 3.60427 46.4853C0 42.9705 0 37.3137 0 26V24Z" fill="#0077FF"/>
<path d="M27.282 36.0205C15.5958 36.0205 8.93032 28.208 8.65259 15.208H14.5064C14.6986 24.7497 19.0141 28.7913 22.4323 29.6247V15.208H27.9445V23.4372C31.32 23.083 34.866 19.333 36.0624 15.208H41.5745C40.6558 20.2913 36.8103 24.0413 34.0757 25.583C36.8103 26.833 41.1901 30.1038 42.8565 36.0205H36.7889C35.4857 32.0622 32.2387 28.9997 27.9445 28.583V36.0205H27.282Z" fill="white"/>
</g>
<defs>
<clipPath id="clip0_330_74">
<rect width="51.2739" height="50" rx="25" fill="white"/>
</clipPath>
</defs>
</svg>
